<svg width="28" height="27" viewBox="0 0 28 27" fill="none" xmlns="http://www.w3.org/2000/svg">
<path d="M11.9049 1.80845L13.2923 0.435883C13.8797 -0.145294 14.8296 -0.145294 15.4108 0.435883L27.5594 12.4489C28.1469 13.0301 28.1469 13.9699 27.5594 14.5449L15.4108 26.5641C14.8233 27.1453 13.8735 27.1453 13.2923 26.5641L11.9049 25.1916C11.3112 24.6042 11.3237 23.6459 11.9299 23.0709L19.4603 15.9731H1.49983C0.668675 15.9731 0 15.3115 0 14.4892V12.5108C0 11.6885 0.668675 11.0269 1.49983 11.0269H19.4603L11.9299 3.92913C11.3175 3.35413 11.305 2.39581 11.9049 1.80845Z" fill="#000"/>
</svg>
