<svg width="18" height="18" viewBox="0 0 18 18" fill="none" xmlns="http://www.w3.org/2000/svg">
<path d="M16.0271 0.130691L5.87809 4.76927C5.38725 4.99363 4.99362 5.38726 4.76925 5.87811L0.13069 16.0271C-0.404393 17.1979 0.801478 18.4044 1.9729 17.8694L12.1219 13.2308C12.6128 13.0064 13.0064 12.6128 13.2307 12.1219L17.8693 1.9729C18.4044 0.801481 17.1985 -0.404394 16.0271 0.130691ZM10.5877 10.5877C9.71087 11.4645 8.28913 11.4645 7.41233 10.5877C6.53552 9.71089 6.53552 8.28916 7.41233 7.41235C8.28913 6.53554 9.71087 6.53554 10.5877 7.41235C11.4645 8.28916 11.4645 9.71089 10.5877 10.5877Z" fill="#000"/>
</svg>
