<svg width="18" height="12" viewBox="0 0 18 12" fill="none" xmlns="http://www.w3.org/2000/svg">
<path d="M17.2504 0.75H11.7162C10.714 0.75 10.2119 1.96176 10.9207 2.67053L12.4395 4.18933L9.00018 7.62913L5.56085 4.1898C4.97489 3.60384 4.02517 3.60384 3.43968 4.1898L0.219734 7.40975C-0.0732446 7.70273 -0.0732446 8.17759 0.219734 8.47056L1.28008 9.53091C1.57306 9.82389 2.04792 9.82389 2.3409 9.53091L4.50003 7.37131L7.93936 10.8106C8.52532 11.3966 9.47503 11.3966 10.0605 10.8106L14.5607 6.31049L16.0795 7.82929C16.7882 8.53807 18 8.03602 18 7.0338V1.50002C18.0005 1.08564 17.6648 0.75 17.2504 0.75Z" fill="#000"/>
</svg>
