<svg width="14" height="18" viewBox="0 0 14 18" fill="none" xmlns="http://www.w3.org/2000/svg">
<path d="M6.3063 17.6368C1.19816 10.2316 0.25 9.47155 0.25 6.75C0.25 3.02207 3.27207 0 7 0C10.7279 0 13.75 3.02207 13.75 6.75C13.75 9.47155 12.8018 10.2316 7.6937 17.6368C7.35849 18.1211 6.64148 18.121 6.3063 17.6368ZM7 9.5625C8.55331 9.5625 9.8125 8.30331 9.8125 6.75C9.8125 5.19669 8.55331 3.9375 7 3.9375C5.44669 3.9375 4.1875 5.19669 4.1875 6.75C4.1875 8.30331 5.44669 9.5625 7 9.5625Z" fill="#EEEEEE"/>
</svg>
