<svg width="20" height="12" viewBox="0 0 20 12" fill="none" xmlns="http://www.w3.org/2000/svg">
<path d="M0.714286 3.72414H19.2857C19.6802 3.72414 20 3.35364 20 2.89655V0.827586C20 0.3705 19.6802 0 19.2857 0H0.714286C0.319777 0 0 0.3705 0 0.827586V2.89655C0 3.35364 0.319777 3.72414 0.714286 3.72414ZM0.714286 12H12.7857C13.1802 12 13.5 11.6295 13.5 11.1724V9.10345C13.5 8.64636 13.1802 8.27586 12.7857 8.27586H0.714286C0.319777 8.27586 0 8.64636 0 9.10345V11.1724C0 11.6295 0.319777 12 0.714286 12Z" fill="#1A1D26"/>
</svg>
