<svg width="24" height="25" viewBox="0 0 24 25" fill="none" xmlns="http://www.w3.org/2000/svg">
<path d="M23.6267 15.504L21.4796 14.2641C21.6963 13.0948 21.6963 11.8952 21.4796 10.7258L23.6267 9.4859C23.8737 9.34477 23.9846 9.05243 23.9039 8.78026C23.3445 6.98591 22.3919 5.36293 21.1469 4.01213C20.9554 3.80548 20.6429 3.75507 20.4009 3.8962L18.2538 5.13612C17.3516 4.35991 16.3132 3.76011 15.1893 3.36697V0.892181C15.1893 0.609924 14.9927 0.362949 14.7155 0.302465C12.8657 -0.110839 10.9705 -0.0906782 9.21146 0.302465C8.93425 0.362949 8.73767 0.609924 8.73767 0.892181V3.37201C7.61873 3.77019 6.58042 4.36999 5.67317 5.14116L3.53104 3.90124C3.28407 3.76011 2.97661 3.80548 2.78508 4.01717C1.54012 5.36293 0.587504 6.98591 0.0280301 8.7853C-0.0576551 9.05747 0.0582719 9.34981 0.305247 9.49094L2.45242 10.7309C2.23568 11.9002 2.23568 13.0998 2.45242 14.2691L0.305247 15.5091C0.0582719 15.6502 -0.0526147 15.9425 0.0280301 16.2147C0.587504 18.0091 1.54012 19.632 2.78508 20.9828C2.97661 21.1895 3.28911 21.2399 3.53104 21.0988L5.67821 19.8588C6.58042 20.635 7.61873 21.2348 8.74271 21.628V24.1078C8.74271 24.3901 8.93929 24.6371 9.2165 24.6975C11.0663 25.1108 12.9614 25.0907 14.7205 24.6975C14.9977 24.6371 15.1943 24.3901 15.1943 24.1078V21.628C16.3132 21.2298 17.3516 20.63 18.2588 19.8588L20.406 21.0988C20.653 21.2399 20.9604 21.1945 21.1519 20.9828C22.3969 19.6371 23.3495 18.0141 23.909 16.2147C23.9846 15.9375 23.8737 15.6451 23.6267 15.504ZM11.9635 16.5272C9.74069 16.5272 7.93123 14.7177 7.93123 12.495C7.93123 10.2722 9.74069 8.46272 11.9635 8.46272C14.1862 8.46272 15.9957 10.2722 15.9957 12.495C15.9957 14.7177 14.1862 16.5272 11.9635 16.5272Z" fill="#EEEEEE"/>
</svg>
